<svg xmlns="http://www.w3.org/2000/svg" viewBox="0 0 400 600" fill="#004900">
  <rect x="35" y="100" width="60" height="500" rx="3"/>
  <polygon points="65,50 30,105 100,105"/>
  <rect x="32" y="90" width="66" height="14" rx="2"/>
  <rect x="305" y="100" width="60" height="500" rx="3"/>
  <polygon points="335,50 300,105 370,105"/>
  <rect x="302" y="90" width="66" height="14" rx="2"/>
  <rect x="95" y="160" width="210" height="440"/>
  <polygon points="95,160 200,50 305,160"/>
  <circle cx="200" cy="45" r="26"/>
  <rect x="196" y="19" width="8" height="16"/>
  <polygon points="200,2 196,19 204,19"/>
  <circle cx="200" cy="200" r="28" fill="none" stroke="#004900" stroke-width="6"/>
  <circle cx="200" cy="200" r="12" fill="#004900"/>
  <rect x="145" y="250" width="16" height="60" rx="8"/>
  <rect x="239" y="250" width="16" height="60" rx="8"/>
  <rect x="175" y="380" width="50" height="220" rx="20"/>
  <line x1="200" y1="380" x2="200" y2="600" stroke="#004900" stroke-width="3"/>
  <rect x="55" y="180" width="12" height="40" rx="6"/>
  <rect x="333" y="180" width="12" height="40" rx="6"/>
  <rect x="55" y="250" width="12" height="40" rx="6"/>
  <rect x="333" y="250" width="12" height="40" rx="6"/>
  <rect x="55" y="320" width="12" height="40" rx="6"/>
  <rect x="333" y="320" width="12" height="40" rx="6"/>
</svg>
